<?xml version="1.0" encoding="utf-8"?>
<!-- Generator: Adobe Illustrator 16.0.4, SVG Export Plug-In . SVG Version: 6.00 Build 0)  -->
<!DOCTYPE svg PUBLIC "-//W3C//DTD SVG 1.1//EN" "http://www.w3.org/Graphics/SVG/1.1/DTD/svg11.dtd">
<svg version="1.1" id="Ebene_1" xmlns="http://www.w3.org/2000/svg" xmlns:xlink="http://www.w3.org/1999/xlink" x="0px" y="0px" width="600px" height="600px" viewBox="0 0 600 600" enable-background="new 0 0 600 600" xml:space="preserve">

	<g transform="translate(300, 300)">
		<polygon points="0,0 0,-120 80,-170 20,-120" transform="translate(0, 120) rotate(  0, 0, -120)"/>
		<polygon points="0,0 0,-120 80,-170 20,-120" transform="translate(0, 120) rotate( 45, 0, -120)"/>
		<polygon points="0,0 0,-120 80,-170 20,-120" transform="translate(0, 120) rotate( 90, 0, -120)"/>
		<polygon points="0,0 0,-120 80,-170 20,-120" transform="translate(0, 120) rotate(135, 0, -120)"/>
		<polygon points="0,0 0,-120 80,-170 20,-120" transform="translate(0, 120) rotate(180, 0, -120)"/>
		<polygon points="0,0 0,-120 80,-170 20,-120" transform="translate(0, 120) rotate(225, 0, -120)"/>
		<polygon points="0,0 0,-120 80,-170 20,-120" transform="translate(0, 120) rotate(270, 0, -120)"/>
		<polygon points="0,0 0,-120 80,-170 20,-120" transform="translate(0, 120) rotate(315, 0, -120)"/>
	</g>

</svg>
